# xmcd
#
# Track frame offsets:
#	150
#	21651
#	42178
#	59896
#	90028
#	98342
#	112668
#	142041
#
# Disc length: 2726 seconds
#
# Revision: 1
# Processed by: cddbd v1.5.2PL0 Copyright (c) Steve Scherf et al.
# Submitted via: audiograbber 1.83.01
#
DISCID=5f0aa408
DTITLE=At The Soundawn - Red Square - We Come In Waves
DYEAR=2008
DGENRE=Metal
TTITLE0=Slight Variations
TTITLE1=Submerged
TTITLE2=One Day Before
TTITLE3=Phone Will
TTITLE4=Sundown In Rome
TTITLE5=Rain Falls
TTITLE6=Frames Of You
TTITLE7=Daten-CD
EXTD=
EXTT0=
EXTT1=
EXTT2=
EXTT3=
EXTT4=
EXTT5=
EXTT6=
EXTT7=
PLAYORDER=
